<?xml version="1.0" standalone="no"?>
<!DOCTYPE svg PUBLIC "-//W3C//DTD SVG 20010904//EN"
 "http://www.w3.org/TR/2001/REC-SVG-20010904/DTD/svg10.dtd">
<svg version="1.0" xmlns="http://www.w3.org/2000/svg"
 width="360.000000pt" height="360.000000pt" viewBox="0 0 360.000000 360.000000"
 preserveAspectRatio="xMidYMid meet">

<g transform="translate(0.000000,360.000000) scale(0.100000,-0.100000)"
fill="#000000" stroke="none">
<path d="M1105 3285 c-107 -29 -239 -90 -340 -158 -188 -127 -204 -166 -170
-408 77 -548 290 -1059 627 -1502 214 -281 539 -577 836 -760 236 -146 308
-172 391 -143 78 28 239 144 336 242 102 103 145 173 145 239 0 78 -31 116
-280 347 -234 216 -304 268 -363 268 -16 0 -91 -18 -167 -40 -76 -22 -145 -40
-154 -40 -15 0 -132 126 -227 245 -131 165 -265 391 -342 577 l-16 37 86 108
c47 59 94 126 104 148 34 73 27 102 -98 437 -105 282 -121 317 -157 354 -39
40 -95 65 -141 63 -11 0 -42 -6 -70 -14z m116 -115 c27 -15 35 -33 152 -351
73 -198 104 -294 100 -310 -4 -13 -53 -82 -109 -154 -74 -92 -104 -138 -104
-157 0 -54 157 -366 267 -529 119 -175 357 -449 403 -464 11 -3 89 14 174 39
85 26 167 46 183 46 23 0 50 -19 124 -87 52 -47 144 -131 204 -187 191 -174
195 -179 195 -218 0 -40 -17 -66 -99 -151 -69 -72 -156 -141 -239 -191 -82
-49 -106 -46 -237 29 -818 470 -1369 1263 -1515 2178 -10 67 -22 149 -26 183
-6 58 -5 62 26 97 58 67 226 166 360 213 72 25 112 29 141 14z"/>
<path d="M2240 2770 c-23 -23 -26 -49 -7 -73 6 -9 55 -30 107 -46 263 -84 466
-292 555 -569 28 -87 48 -108 90 -92 35 13 40 34 26 102 -42 207 -233 460
-441 582 -74 44 -258 116 -295 116 -8 0 -24 -9 -35 -20z"/>
<path d="M2138 2270 c-57 -34 -39 -91 35 -115 105 -34 179 -108 219 -218 23
-63 49 -79 94 -58 36 16 32 72 -11 158 -43 87 -122 163 -207 203 -78 36 -108
43 -130 30z"/>
</g>
</svg>
